<?xml version="1.0" standalone="no"?>
<!DOCTYPE svg PUBLIC "-//W3C//DTD SVG 20010904//EN"
 "http://www.w3.org/TR/2001/REC-SVG-20010904/DTD/svg10.dtd">
<svg version="1.0" xmlns="http://www.w3.org/2000/svg"
 width="1280.000000pt" height="756.000000pt" viewBox="0 0 1280.000000 756.000000"
 preserveAspectRatio="xMidYMid meet">
<metadata>
Created by potrace 1.15, written by Peter Selinger 2001-2017
</metadata>
<g transform="translate(0.000000,756.000000) scale(0.100000,-0.100000)"
fill="#000000" stroke="none">
<path d="M6638 7258 c-56 -74 -215 -281 -353 -460 -137 -180 -254 -327 -259
-327 -8 -1 -382 163 -959 420 -75 33 -107 43 -103 33 3 -9 90 -138 193 -287
387 -562 453 -659 453 -667 0 -4 -87 -104 -192 -222 -480 -535 -573 -639 -576
-647 -2 -7 233 58 458 127 36 11 160 48 275 82 116 34 246 73 289 86 44 14 85
23 92 20 7 -3 32 -40 56 -83 39 -68 135 -234 324 -558 28 -49 86 -148 127
-220 42 -71 80 -131 86 -133 8 -3 11 53 12 180 0 101 2 194 4 208 1 14 6 187
10 385 4 198 11 367 15 375 6 11 172 50 562 134 304 65 559 122 566 126 8 4
-223 90 -530 199 -298 105 -546 195 -551 200 -4 4 19 266 52 582 33 315 58
575 56 577 -2 2 -50 -57 -107 -130z"/>
<path d="M4182 5053 c-7 -37 -28 -169 -47 -293 -50 -316 -74 -464 -87 -541
l-12 -67 -110 -32 c-61 -18 -160 -47 -221 -65 -60 -18 -182 -54 -270 -80 -263
-77 -325 -97 -325 -104 0 -4 82 -49 183 -101 100 -51 288 -147 417 -213 129
-66 241 -124 248 -130 13 -10 12 -181 -3 -567 -4 -99 -8 -385 -6 -415 1 -5
158 147 349 338 l349 349 129 -45 c71 -25 277 -98 458 -162 180 -64 330 -114
333 -112 2 3 -93 201 -213 439 l-217 435 296 388 c163 214 295 390 293 392 -2
2 -219 -30 -482 -72 l-479 -76 -23 28 c-12 16 -67 93 -122 173 -230 336 -411
595 -419 598 -4 1 -13 -28 -19 -65z"/>
<path d="M8729 4444 c-24 -34 -84 -118 -134 -187 -49 -70 -94 -127 -100 -127
-5 0 -110 17 -232 39 -123 21 -223 37 -223 35 0 -2 61 -87 136 -190 130 -177
136 -187 124 -212 -6 -15 -54 -107 -106 -206 -52 -98 -93 -180 -91 -182 2 -2
101 29 221 69 l218 72 164 -168 164 -169 0 236 0 236 213 103 212 104 -225 74
-225 74 -32 218 c-17 119 -33 223 -35 229 -3 7 -24 -15 -49 -48z"/>
<path d="M7491 3145 c-101 -124 -189 -225 -195 -225 -6 0 -133 47 -281 103
-149 57 -271 103 -273 101 -2 -1 69 -116 157 -255 l159 -252 -185 -229 c-101
-127 -182 -232 -180 -234 3 -3 132 28 288 69 l284 74 70 -106 c39 -58 113
-171 165 -251 61 -95 95 -139 98 -127 2 9 11 144 20 300 l17 282 285 77 c157
42 287 77 290 78 11 2 -38 23 -285 120 -143 56 -262 104 -264 105 -4 5 19 544
25 573 2 12 1 22 -3 22 -5 0 -91 -101 -192 -225z"/>
<path d="M3250 2414 c0 -4 38 -207 85 -452 47 -245 82 -449 78 -453 -6 -5
-724 -282 -842 -324 -8 -3 -12 -8 -9 -10 4 -5 547 -77 813 -108 l100 -12 22
-400 c12 -220 22 -428 22 -462 1 -35 4 -63 9 -63 4 1 94 187 201 415 107 228
198 415 203 415 9 0 710 -187 809 -216 31 -9 61 -15 67 -13 6 2 -139 145 -323
318 -184 173 -331 319 -328 325 11 19 91 142 254 392 200 308 242 374 238 378
-2 1 -182 -95 -399 -215 -217 -120 -400 -219 -407 -219 -10 0 -230 265 -511
618 -71 88 -82 100 -82 86z"/>
<path d="M6224 2031 c-50 -47 -157 -148 -237 -224 l-146 -139 -286 152 c-158
83 -288 150 -290 148 -2 -2 58 -134 135 -293 l139 -290 -237 -233 c-233 -230
-236 -234 -197 -229 439 58 615 80 618 76 1 -2 66 -133 142 -291 77 -158 142
-288 145 -288 3 0 32 144 64 320 33 176 60 320 61 320 16 0 640 92 643 95 2 2
-9 10 -25 18 -91 48 -529 289 -536 296 -4 4 17 151 47 326 31 175 55 320 53
321 -1 1 -43 -37 -93 -85z"/>
</g>
</svg>
